<svg preserveAspectRatio="none" overflow="visible" style="display: block;" width="11.8345" height="11.8345" viewBox="0 0 11.8345 11.8345" fill="none" xmlns="http://www.w3.org/2000/svg">
<path id="Vector" d="M5.14544 0H0.257268C0.11577 0 0 0.11577 0 0.257268V5.14541C0 5.28695 0.11577 5.40269 0.257268 5.40269H5.14544C5.28692 5.40269 5.40272 5.28695 5.40272 5.14541V0.257268C5.40272 0.11577 5.28692 0 5.14544 0ZM4.3093 4.3093H1.0934V1.0934H4.3093V4.3093ZM11.5772 0H6.68906C6.54758 0 6.43178 0.11577 6.43178 0.257268V5.14541C6.43178 5.28695 6.54758 5.40269 6.68906 5.40269H11.5772C11.7187 5.40269 11.8345 5.28695 11.8345 5.14541V0.257268C11.8345 0.11577 11.7187 0 11.5772 0ZM10.7411 4.3093H7.52516V1.0934H10.7411V4.3093ZM5.14544 6.43181H0.257268C0.11577 6.43181 0 6.54755 0 6.68903V11.5772C0 11.7187 0.11577 11.8345 0.257268 11.8345H5.14544C5.28692 11.8345 5.40272 11.7187 5.40272 11.5772V6.68903C5.40272 6.54755 5.28692 6.43181 5.14544 6.43181ZM4.3093 10.7411H1.0934V7.52519H4.3093V10.7411ZM11.5772 6.43181H6.68906C6.54758 6.43181 6.43178 6.54755 6.43178 6.68903V11.5772C6.43178 11.7187 6.54758 11.8345 6.68906 11.8345H11.5772C11.7187 11.8345 11.8345 11.7187 11.8345 11.5772V6.68903C11.8345 6.54755 11.7187 6.43181 11.5772 6.43181ZM10.7411 10.7411H7.52516V7.52519H10.7411V10.7411Z" fill="#767A72"/>
</svg>
